<svg width="48" height="107" viewBox="0 0 48 107" fill="none" xmlns="http://www.w3.org/2000/svg">
<path d="M43.2 104.008V105H34.88V104.008H37.44L35.264 97.704H27.552L26.336 100.584C25.952 101.565 25.76 102.291 25.76 102.76C25.76 103.208 25.824 103.528 25.952 103.72C26.08 103.912 26.752 104.008 27.968 104.008V105H20.992V104.008C22.1013 104.029 22.9013 103.891 23.392 103.592C23.904 103.272 24.4587 102.269 25.056 100.584L32 82.344H33.28L40.832 104.008H43.2ZM28 96.488H34.816L31.648 87.112L28 96.488Z" fill="white"/>
<path d="M47.2 70.008V71H38.88V70.008H41.44L39.264 63.704H31.552L30.336 66.584C29.952 67.5653 29.76 68.2907 29.76 68.76C29.76 69.208 29.824 69.528 29.952 69.72C30.08 69.912 30.752 70.008 31.968 70.008V71H24.992V70.008C26.1013 70.0293 26.9013 69.8907 27.392 69.592C27.904 69.272 28.4587 68.2693 29.056 66.584L36 48.344H37.28L44.832 70.008H47.2ZM32 62.488H38.816L35.648 53.112L32 62.488Z" fill="white"/>
<path d="M15.5276 74.1722V75.1642H12.4876V92.5402C12.4876 95.8682 11.773 98.4495 10.3436 100.284C9.36232 101.543 7.97565 102.236 6.18365 102.364C5.77832 102.386 5.44765 102.247 5.19165 101.948C4.93565 101.65 4.80765 101.287 4.80765 100.86C4.80765 100.199 5.12765 99.7829 5.76765 99.6122C5.93832 99.5695 6.26898 99.7082 6.75965 100.028C7.27165 100.348 7.71965 100.476 8.10365 100.412C8.59432 100.348 8.94632 99.9855 9.15965 99.3242C9.28765 98.9829 9.35165 98.1082 9.35165 96.7002V75.1642H6.34365V74.1722H15.5276Z" fill="white"/>
<path d="M20.384 57.464C20.3413 61.1547 17.8133 63 12.8 63H1.664V62.008H4.672V41.944H1.664V40.952H12.864C14.8907 40.952 16.48 41.4427 17.632 42.424C18.8053 43.4053 19.392 44.664 19.392 46.2C19.392 47.736 18.9227 48.9733 17.984 49.912C17.0453 50.8507 15.84 51.448 14.368 51.704C15.776 51.7253 17.0667 52.1627 18.24 53.016C19.712 54.0827 20.4267 55.5653 20.384 57.464ZM16.224 46.392C16.224 43.4267 14.912 41.944 12.288 41.944H7.584V51.32H11.776C12.8 51.32 13.7387 50.9787 14.592 50.296C15.68 49.4 16.224 48.0987 16.224 46.392ZM15.168 61.176C16.32 60.408 16.8853 59.128 16.864 57.336C16.8427 55.5227 16.2453 54.168 15.072 53.272C14.1973 52.6107 13.1093 52.28 11.808 52.28H7.584V62.008H12.064C13.28 62.008 14.3147 61.7307 15.168 61.176Z" fill="white"/>
</svg>
